<?xml version="1.0" encoding="UTF-8"?>
<svg id="Ebene_1" data-name="Ebene 1" xmlns="http://www.w3.org/2000/svg" viewBox="0 0 512 512">
  <defs>
    <style>
      .cls-1 {
        letter-spacing: -.02em;
      }

      .cls-2 {
        letter-spacing: 0em;
      }

      .cls-3 {
        letter-spacing: -.02em;
      }

      .cls-4 {
        stroke-width: 0px;
      }

      .cls-5 {
        letter-spacing: 0em;
      }

      .cls-6 {
        font-family: PlayfairDisplay-Regular, 'Playfair Display';
        font-size: 184.27px;
      }
    </style>
  </defs>
  <g>
    <path class="cls-4" d="M464.8,223.83H163.65v-15.41c13.77,0,27.87-.93,41.8.24,17.03,1.43,30.14-5.41,41.69-16.51,17.82-17.13,35.59-34.33,52.92-51.96,22.62-23.02,44.79-46.48,67.59-70.19,6.09,6.82,11.72,13.13,18.03,20.19-22.24,23.52-44.12,46.65-65.13,68.87,20.64,12.9,41.1,25.69,61.57,38.48.56.35,1.17.61,1.76.9,17.13,8.45,26.98,1.99,25.52-17.35-.49-6.43-2.41-12.98-4.86-18.99-3.47-8.51-7.77-16.71-12.2-24.78-14.06-25.62-12.93-29.71,14.99-39.45,12.84-4.48,26.45-6.74,39.71-10,.59,1.12,1.19,2.24,1.78,3.36-2.34,2.74-4.56,5.6-7.05,8.21-12.34,12.95-13.72,22.96-4.01,37.99,12.63,19.56,20.19,40.54,20.54,64.01.04,2.37,2.44,4.61,3.13,7.09,1.29,4.68,2.12,9.49,3.38,15.32Z"/>
    <path class="cls-4" d="M218.46,196.22h-38.97c0-3.12-.76-6.18.13-8.66,4.94-13.82-.03-25.36-6.45-37.41-3.07-5.75-4.43-13.88-3.1-20.21,2.91-13.94,18.88-21.19,35.9-18.02,14.39,2.68,23.29,13.61,22.43,27.88-.15,2.51-.69,5.4-2.1,7.36-9.56,13.25-14.45,27.17-7.9,43.34.57,1.4.08,3.23.08,5.71Z"/>
  </g>
  <text class="cls-6" transform="translate(-3.45 339.56)"><tspan class="cls-3" x="0" y="0">M</tspan><tspan class="cls-5" x="157.18" y="0">e</tspan><tspan class="cls-2" x="248.58" y="0">y</tspan><tspan x="339.79" y="0">e</tspan><tspan class="cls-1" x="433.03" y="0">r</tspan></text>
</svg>